<svg xmlns="http://www.w3.org/2000/svg" id="Layer_1" data-name="Layer 1" viewBox="0 0 1080 1080"><defs><style>.cls-1{fill:none;stroke:#89f0ff;stroke-miterlimit:10;stroke-width:15px}.cls-2{fill:#0059ff}.cls-3{fill:#fe33a8}</style></defs><title>logosvg</title><line x1="477.55" x2="179.23" y1="153.79" y2="261.45" class="cls-1"/><line x1="179.23" x2="73.8" y1="261.45" y2="465.57" class="cls-1"/><line x1="73.8" x2="210.63" y1="465.57" y2="645.01" class="cls-1"/><line x1="210.63" x2="498.86" y1="645.01" y2="759.41" class="cls-1"/><line x1="498.86" x2="527.87" y1="759.41" y2="851.9" class="cls-1"/><line x1="526.12" x2="645.78" y1="846.33" y2="938.85" class="cls-1"/><line x1="645.78" x2="867.84" y1="938.85" y2="819.57" class="cls-1"/><line x1="867.84" x2="984.48" y1="819.57" y2="539.59" class="cls-1"/><line x1="984.48" x2="822.98" y1="539.59" y2="254.72" class="cls-1"/><line x1="822.98" x2="477.55" y1="254.72" y2="153.79" class="cls-1"/><line x1="179.23" x2="309.32" y1="261.45" y2="328.74" class="cls-1"/><line x1="73.8" x2="309.32" y1="465.57" y2="328.74" class="cls-1"/><line x1="309.32" x2="477.55" y1="328.74" y2="153.79" class="cls-1"/><line x1="477.55" x2="636.81" y1="153.79" y2="461.08" class="cls-1"/><line x1="636.81" x2="822.98" y1="461.08" y2="254.72" class="cls-1"/><line x1="636.81" x2="867.84" y1="461.08" y2="819.57" class="cls-1"/><line x1="498.86" x2="636.81" y1="759.41" y2="461.08" class="cls-1"/><line x1="210.63" x2="360.91" y1="645.01" y2="526.13" class="cls-1"/><line x1="360.91" x2="309.32" y1="526.13" y2="328.74" class="cls-1"/><line x1="360.91" x2="636.81" y1="526.13" y2="461.08" class="cls-1"/><line x1="636.81" x2="984.48" y1="461.08" y2="539.59" class="cls-1"/><line x1="498.86" x2="867.84" y1="759.41" y2="819.57" class="cls-1"/><line x1="360.91" x2="498.86" y1="526.13" y2="759.41" class="cls-1"/><circle cx="180.35" cy="262.03" r="19.07" class="cls-2"/><circle cx="636.81" cy="461.08" r="49.4" class="cls-3"/><circle cx="360.91" cy="526.13" r="30.95" class="cls-2"/><circle cx="470.77" cy="151.8" r="28.09" class="cls-2"/><circle cx="984.48" cy="539.59" r="34.88" class="cls-3"/><circle cx="822.98" cy="254.72" r="30.31" class="cls-2"/><circle cx="867.84" cy="819.57" r="17.44" class="cls-3"/><circle cx="309.32" cy="328.74" r="22.34" class="cls-2"/><circle cx="76.12" cy="461.08" r="15.48" class="cls-3"/><circle cx="645.78" cy="938.85" r="17.44" class="cls-2"/><circle cx="207.06" cy="640.33" r="17.44" class="cls-2"/><circle cx="498.86" cy="759.41" r="17.44" class="cls-3"/><circle cx="526.12" cy="846.33" r="13.38" class="cls-3"/></svg>