<svg width="2029" height="2198" viewBox="0 0 2029 2198" fill="none" xmlns="http://www.w3.org/2000/svg">
<path d="M1787.86 591.301C1788.09 499.321 1788.42 313.953 1787.86 308.321L2028.6 437.844V725.047L1787.86 591.301Z" fill="#4B207A"/>
<path d="M1779.41 1444.46L1778 1168.52L2025.78 1314.94L1779.41 1444.46Z" fill="#2B0D4F"/>
<path d="M1281.03 875.688L1262.72 0L1590.76 170.351V698.298L2025.78 957.344V1314.94L1281.03 875.688Z" fill="#6F389F"/>
<path d="M1269.06 285.795L1262.72 0L1023.39 141.49L1269.06 285.795Z" fill="#2B0D4F"/>
<path d="M5.50657 748.981V460.37L257.513 320.822V602.564L5.50657 748.981Z" fill="#4B207A"/>
<path d="M248.362 1455.73L2.69086 1314.94L248.362 1177.67V1455.73Z" fill="#2B0D4F"/>
<path d="M767.158 281.572L765.75 0L1010.72 141.49L767.158 281.572Z" fill="#2B0D4F"/>
<path d="M769.974 886.951L2.69086 1314.94L0 947.489L439.127 689.851V185.837L765.75 0L769.974 886.951Z" fill="#683B9B"/>
<path d="M1014.24 1910.46L774.198 2051.25L1007.9 2197.67L1252.87 2051.25L1014.24 1910.46Z" fill="#4B207A"/>
<path d="M1773.78 1455.73L1779.41 1742.93L1535.85 1606.37L1773.78 1455.73Z" fill="#2B0D4F"/>
<path d="M249.066 1748.56L254.698 1468.4L499.665 1607.07L249.066 1748.56Z" fill="#2B0D4F"/>
<path d="M584.137 1941.61L1017.05 1685.21L1455.68 1942.85L1779.41 1742.93L1017.05 1314.94L249.066 1748.56L584.137 1941.61Z" fill="#6F389F"/>
</svg>
