<svg width="200" height="200" viewBox="0 0 200 200" fill="none" xmlns="http://www.w3.org/2000/svg">
<path fill-rule="evenodd" clip-rule="evenodd" d="M99.7213 199.658C44.6816 199.869 -0.247513 154.774 0.00102622 99.3584C0.251635 44.5759 44.9616 -0.328308 100.375 0.0018086C154.995 0.327952 199.856 45.091 199.429 100.673C199.01 155.213 154.603 199.835 99.7213 199.658Z" fill="#0090FF"/>
<path fill-rule="evenodd" clip-rule="evenodd" d="M112.107 91.762C120.802 92.9925 129.301 94.1924 138.062 95.4324C138.8 92.7921 139.426 90.541 140.145 87.9675C131.133 86.6321 122.534 85.3577 113.299 83.9899C116.405 72.9861 119.087 62.4649 122.442 52.1593C123.547 48.7674 126.016 45.5834 128.533 42.9488C131.834 39.4958 136.403 40.2608 139.2 44.0553C140.371 45.6444 141.474 47.3252 142.879 48.6854C144.671 50.4195 147.314 51.2627 149.114 49.5744C150.297 48.466 150.259 45.8581 150.37 43.897C150.413 43.1091 149.486 42.1819 148.844 41.4551C145.717 37.9105 141.494 36.6552 137.034 36.4682C127.083 36.0505 119.943 41.1307 114.336 48.8094C108.78 56.4193 106.344 65.3666 103.692 74.2089C102.918 76.7901 102.255 79.4056 101.478 82.2386C91.7901 80.8345 82.4968 79.4876 72.933 78.1045C72.5939 80.6895 72.2776 83.1142 71.9404 85.6897C81.409 87.1491 90.468 88.5436 99.8299 89.9859C98.5763 95.2741 97.4084 100.209 96.2082 105.273C87.0254 103.987 78.3188 102.771 69.5533 101.543C69.1818 104.378 68.9017 106.52 68.5702 109.042C77.3739 110.389 85.8613 111.686 94.4059 112.993C94.4059 113.958 94.5107 114.519 94.3888 115.029C91.6625 126.664 89.1268 138.351 86.069 149.896C84.6077 155.402 82.2568 160.717 77.6863 164.586C73.9237 167.77 69.7895 167.238 66.9604 163.287C65.682 161.507 64.6151 159.393 62.9272 158.145C61.6945 157.232 58.9511 156.682 58.0462 157.415C56.7049 158.502 55.7333 160.908 55.8476 162.674C55.9448 164.241 57.4499 166.072 58.8311 167.14C63.4854 170.729 68.9627 171.25 74.5124 170.156C83.8076 168.323 90.3632 162.516 94.4269 154.303C97.6199 147.847 100.011 140.953 102.27 134.091C104.316 127.877 105.705 121.446 107.439 114.891C116.568 116.217 125.517 117.516 134.65 118.842C135.405 116.232 136.085 113.871 136.818 111.328C127.262 109.922 118.144 108.577 108.948 107.222C110.053 101.818 111.036 97.0044 112.107 91.762Z" fill="white"/>
</svg>
